<?xml version="1.0" standalone="no"?>
<!DOCTYPE svg PUBLIC "-//W3C//DTD SVG 20010904//EN"
 "http://www.w3.org/TR/2001/REC-SVG-20010904/DTD/svg10.dtd">
<svg version="1.0" xmlns="http://www.w3.org/2000/svg"
 width="48.000000pt" height="48.000000pt" viewBox="0 0 48.000000 48.000000"
 preserveAspectRatio="xMidYMid meet">

<g transform="translate(0.000000,48.000000) scale(0.100000,-0.100000)"
fill="#000000" stroke="none">
<path d="M80 252 c0 -141 3 -201 12 -210 7 -7 27 -12 45 -12 l33 0 0 193 c0
175 -2 196 -18 210 -10 10 -31 17 -45 17 l-27 0 0 -198z"/>
<path d="M200 237 c0 -179 3 -187 57 -187 l33 0 0 163 c0 179 -3 187 -57 187
l-33 0 0 -163z"/>
<path d="M320 235 c0 -113 2 -125 19 -135 11 -5 29 -10 40 -10 20 0 21 5 21
119 0 130 -8 151 -56 151 l-24 0 0 -125z"/>
</g>
</svg>
